<svg width="44" height="46" viewBox="0 0 44 46" fill="none" xmlns="http://www.w3.org/2000/svg">
<path d="M37.9775 10.5435C37.9775 10.5435 33.3988 6.81719 27.9812 6.38889L27.5 7.40254C32.395 8.64462 34.6362 10.4292 36.9875 12.6136C32.945 10.4721 28.9437 8.45903 21.9862 8.45903C15.0287 8.45903 11.0275 10.4721 6.985 12.6136C9.33625 10.4292 12.0037 8.44475 16.4725 7.40254L15.9912 6.38889C10.3125 6.94568 5.995 10.5435 5.995 10.5435C5.995 10.5435 0.88 18.253 0 33.3864C5.15625 39.5683 12.9937 39.6111 12.9937 39.6111L14.63 37.3411C11.8525 36.3417 8.70375 34.5428 5.995 31.302C9.22625 33.8432 14.1213 36.4987 22 36.4987C29.8787 36.4987 34.76 33.8575 38.005 31.302C35.2962 34.5428 32.1475 36.3417 29.37 37.3411L31.0062 39.6111C31.0062 39.6111 38.8437 39.5683 44 33.3864C43.0925 18.253 37.9775 10.5435 37.9775 10.5435ZM15.4687 29.2319C13.53 29.2319 11.9625 27.3759 11.9625 25.0773C11.9625 22.7787 13.53 20.9227 15.4687 20.9227C17.4075 20.9227 18.975 22.7787 18.975 25.0773C18.975 27.3759 17.4075 29.2319 15.4687 29.2319ZM28.4762 29.2319C26.5375 29.2319 24.97 27.3759 24.97 25.0773C24.97 22.7787 26.5375 20.9227 28.4762 20.9227C30.415 20.9227 31.9825 22.7787 31.9825 25.0773C31.9825 27.3759 30.4013 29.2319 28.4762 29.2319Z" fill="white"/>
</svg>
