<svg width="54" height="53" viewBox="0 0 54 53" fill="none" xmlns="http://www.w3.org/2000/svg">
<path d="M29.9183 26.5C29.9183 34.3609 23.3892 40.8243 15.2276 40.8243C7.06626 40.8243 0.537109 34.3609 0.537109 26.5C0.537109 18.6391 7.06626 12.1757 15.2276 12.1757C23.3892 12.1757 29.9183 18.6391 29.9183 26.5ZM46.0599 26.5002C46.0599 34.0117 42.7952 39.9511 38.6238 39.9511C34.4524 39.9511 31.1878 33.8371 31.1878 26.5002C31.1878 19.1633 34.4524 13.0493 38.6238 13.0493C42.7952 13.0493 46.0599 19.1633 46.0599 26.5002ZM52.7706 26.5002C52.7706 33.1382 51.6824 38.5535 50.2315 38.5535C48.7806 38.5535 47.6923 33.1382 47.6923 26.5002C47.6923 19.862 48.7806 14.4467 50.2315 14.4467C51.6824 14.4467 52.7706 19.862 52.7706 26.5002Z" fill="white"/>
</svg>
