<svg width="47" height="45" viewBox="0 0 47 45" fill="none" xmlns="http://www.w3.org/2000/svg">
<path d="M46.75 8.52022C45 9.23713 43.25 9.71508 41.25 9.95404C43.25 8.75919 44.75 7.0864 45.5 4.93566C43.75 5.89154 41.5 6.84742 39.5 7.0864C37.5 5.4136 35 4.21875 32.2499 4.21875C27 4.21875 22.4999 8.28125 22.4999 13.5386C22.4999 14.2555 22.4999 14.9724 22.7501 15.6893C14.7501 15.2114 7.75001 11.6268 3 6.13052C2.24999 7.32537 1.75 8.75919 1.75 10.432C1.75 13.5386 3.5 16.4063 6.00001 18.079C4.5 18.079 3 17.6011 1.75 16.8842C1.75 21.4246 5.00001 25.0092 9.50001 25.9651C8.75 26.2041 7.75001 26.2041 7 26.2041C6.5 26.2041 5.74999 26.2041 5.25 25.9651C6.5 29.5497 10 32.1784 14.25 32.4173C11 34.8069 6.74999 36.4798 2.24999 36.4798C1.5 36.4798 0.75 36.4798 0 36.2407C4.25 38.8694 9.25 40.3033 14.7501 40.3033C32.5001 40.3033 42.2501 26.2041 42.2501 14.0165C42.2501 13.5386 42.2501 13.2996 42.2501 12.8217C43.75 12.1048 45.5 10.432 46.75 8.52022Z" fill="white"/>
</svg>
