<svg width="51" height="46" viewBox="0 0 51 46" fill="none" xmlns="http://www.w3.org/2000/svg">
<g clip-path="url(#clip0_199_908)">
<path d="M50.0408 13.3181C50.0408 13.3181 49.5672 9.90094 47.9885 8.47713C46.0942 6.4838 43.8843 6.4838 42.9372 6.4838C35.8336 5.91428 25.2571 5.91428 25.2571 5.91428C25.2571 5.91428 14.6807 5.91428 7.57714 6.34142C6.63 6.4838 4.42 6.4838 2.52571 8.33476C0.947143 9.75856 0.473571 13.1757 0.473571 13.1757C0.473571 13.1757 0 17.1624 0 21.1491V24.8509C0 28.8377 0.473571 32.6819 0.473571 32.6819C0.473571 32.6819 0.947143 36.0991 2.52571 37.5229C4.42 39.5162 6.94572 39.3738 8.05072 39.6586C12.155 39.9434 25.2571 40.0857 25.2571 40.0857C25.2571 40.0857 35.8336 40.0857 42.9372 39.5162C43.8843 39.3738 46.0942 39.3738 47.9885 37.5229C49.5672 36.0991 50.0408 32.6819 50.0408 32.6819C50.0408 32.6819 50.5143 28.6952 50.5143 24.8509V21.1491C50.5143 17.1624 50.0408 13.3181 50.0408 13.3181Z" fill="white"/>
<path d="M18.9424 14.4572V31.5429L34.728 23L18.9424 14.4572Z" fill="#1E2D54"/>
</g>
<defs>
<clipPath id="clip0_199_908">
<rect width="51" height="46" fill="white"/>
</clipPath>
</defs>
</svg>
