<svg width="488" height="567" viewBox="0 0 488 567" fill="none" xmlns="http://www.w3.org/2000/svg">
<g opacity="0.1">
<g clip-path="url(#clip0_307_492)">
<path d="M355.529 30.2491C355.857 29.9708 356.102 29.6925 356.43 29.4142C359.133 26.9097 363.064 25.6574 367.323 25.1009C372.565 24.4052 374.776 26.8401 376.824 30.1099C376.987 30.3882 377.397 30.5273 377.888 30.9448C388.126 28.3011 392.876 29.4142 395.497 34.4233C393.695 37.9018 392.221 41.102 390.583 44.2327C390.092 45.1371 389.436 46.0415 388.781 46.8764C387.389 48.546 385.915 50.1461 384.113 52.1637C385.751 52.7898 386.815 53.4855 387.962 53.6247C392.467 54.1812 395.169 56.1292 396.562 60.0251C397.545 62.8775 400.329 65.3125 397.299 68.3735C397.135 68.5823 397.872 69.4171 398.364 70.3215C395.415 71.1564 392.794 71.8521 389.764 72.6869C388.617 75.4697 386.815 78.3221 383.867 80.6179C382.72 81.5223 382.065 82.9833 381.246 84.2356C380.673 85.0704 380.427 86.114 379.69 86.7401C373.466 92.1666 367.651 98.0105 360.689 102.741C358.642 104.133 356.922 105.524 355.529 107.194C354.137 105.455 352.335 104.133 350.369 102.741C343.408 98.0105 337.675 92.1666 331.368 86.7401C330.631 86.114 330.385 85.0704 329.812 84.2356C328.993 82.9833 328.42 81.5223 327.191 80.6179C324.161 78.3221 322.441 75.4697 321.294 72.6869C318.264 71.8521 315.561 71.0868 312.695 70.3215C313.186 69.4171 314.005 68.5127 313.76 68.3735C310.729 65.2429 313.514 62.8079 314.497 60.0251C315.889 56.1292 318.592 54.1812 323.096 53.6247C324.243 53.4855 325.308 52.8594 326.946 52.1637C325.144 50.1461 323.67 48.546 322.277 46.8764C321.54 46.0415 320.967 45.1371 320.475 44.2327C318.837 41.102 317.281 37.9713 315.561 34.4233C318.182 29.3446 322.932 28.3011 333.17 30.9448C333.743 30.5273 334.153 30.3882 334.235 30.1099C336.282 26.8401 338.494 24.4052 343.735 25.1009C347.994 25.6574 351.926 26.9097 354.628 29.4142C354.874 29.6925 355.202 29.9708 355.529 30.2491ZM354.628 619.927C351.926 622.431 347.994 623.683 343.735 624.24C338.494 624.936 336.282 622.501 334.235 619.231C334.071 618.953 333.662 618.813 333.17 618.396C322.932 621.04 318.182 619.927 315.561 614.917C317.363 611.439 318.837 608.239 320.475 605.108C320.967 604.204 321.622 603.299 322.277 602.464C323.67 600.795 325.144 599.195 326.946 597.177C325.308 596.551 324.243 595.855 323.096 595.716C318.592 595.159 315.889 593.212 314.497 589.316C313.514 586.463 310.729 584.028 313.76 580.967C313.923 580.758 313.186 579.924 312.695 579.019C315.643 578.184 318.264 577.489 321.294 576.654C322.441 573.871 324.243 571.019 327.191 568.723C328.338 567.818 328.993 566.357 329.812 565.105C330.385 564.27 330.631 563.227 331.368 562.601C337.593 557.174 343.408 551.33 350.369 546.599C352.417 545.208 354.137 543.817 355.529 542.147C356.922 543.886 358.723 545.208 360.689 546.599C367.651 551.33 373.384 557.174 379.69 562.601C380.427 563.227 380.673 564.27 381.246 565.105C382.065 566.357 382.639 567.818 383.867 568.723C386.897 571.019 388.617 573.871 389.764 576.654C392.794 577.489 395.497 578.254 398.364 579.019C397.872 579.924 397.053 580.828 397.299 580.967C400.329 584.098 397.545 586.533 396.562 589.316C395.169 593.212 392.467 595.159 387.962 595.716C386.815 595.855 385.751 596.481 384.113 597.177C385.915 599.195 387.389 600.795 388.781 602.464C389.518 603.299 390.092 604.204 390.583 605.108C392.221 608.239 393.777 611.369 395.497 614.917C392.876 619.996 388.126 621.04 377.888 618.396C377.315 618.813 376.906 618.953 376.824 619.231C374.776 622.501 372.565 624.936 367.323 624.24C363.064 623.683 359.133 622.431 356.43 619.927C356.102 619.648 355.857 619.37 355.529 619.092C355.202 619.37 354.874 619.648 354.628 619.927ZM355.529 60.0947C355.775 59.7469 356.021 59.4686 356.348 59.1903C356.43 59.1207 355.939 58.7033 355.611 58.2163C355.12 58.7033 354.71 59.1207 354.792 59.1903C354.956 59.4686 355.284 59.8164 355.529 60.0947ZM354.71 590.15C354.628 590.22 355.12 590.637 355.529 591.124C355.939 590.637 356.348 590.22 356.266 590.15C356.021 589.872 355.693 589.524 355.447 589.246C355.283 589.524 354.956 589.872 354.71 590.15ZM355.529 88.2707C356.594 87.088 357.003 85.627 356.103 83.4007C355.939 83.5399 355.693 83.6094 355.529 83.679C355.365 83.6094 355.12 83.4703 354.956 83.4007C353.973 85.627 354.465 87.088 355.529 88.2707ZM354.874 565.94C355.038 565.801 355.283 565.731 355.447 565.662C355.611 565.731 355.857 565.87 356.021 565.94C356.921 563.714 356.43 562.253 355.447 561.07C354.464 562.253 353.973 563.714 354.874 565.94ZM355.529 88.2707C356.594 87.088 357.003 85.627 356.103 83.4007C355.939 83.5399 355.693 83.6094 355.529 83.679C355.365 83.6094 355.12 83.4703 354.956 83.4007C353.973 85.627 354.465 87.088 355.529 88.2707ZM354.874 565.94C355.038 565.801 355.283 565.731 355.447 565.662C355.611 565.731 355.857 565.87 356.021 565.94C356.921 563.714 356.43 562.253 355.447 561.07C354.464 562.253 353.973 563.714 354.874 565.94Z" fill="#3BA677"/>
</g>
<path d="M191.077 564.239C190.995 564.314 190.913 564.389 190.831 564.389C190.913 564.314 190.995 564.239 191.077 564.239Z" fill="#3BA677"/>
<path d="M296.975 564.239C297.057 564.314 297.139 564.389 297.22 564.389C297.139 564.314 297.057 564.239 296.975 564.239Z" fill="#3BA677"/>
<path d="M244.065 456.308C235.302 461.944 228.34 467.966 220.887 473.756C217.038 476.767 212.533 479.469 209.093 482.943C190.338 502.167 172.074 522.086 152.827 540.846C143.818 549.571 135.218 558.063 125.472 566.556C115.726 558.14 106.88 549.571 97.8711 540.846C78.5423 522.163 60.3601 502.244 41.6047 482.943C38.2468 479.469 34.0698 476.767 30.2204 473.756C21.7845 467.116 13.5125 460.245 4.83095 453.992C-0.902148 449.9 -1.63926 447.429 3.19292 442.797C18.0171 428.823 32.6775 414.772 47.6654 401.029C64.1276 385.975 80.5899 371.151 95.414 354.552C103.522 345.442 112.286 336.795 121.704 326.991C122.933 328.998 125.308 330.619 125.308 332.163C125.308 330.619 127.355 328.998 128.666 326.991C138.085 336.795 146.602 345.442 154.711 354.552C169.535 371.074 186.898 385.975 203.278 401.029C216.71 413.305 228.176 425.889 243.983 438.474C259.79 425.966 271.256 413.382 284.688 401.029C301.15 385.975 318.513 371.151 333.256 354.552C341.364 345.442 349.882 336.795 359.3 326.991C360.529 328.998 362.658 330.619 362.658 332.163C362.658 330.619 365.033 328.998 366.262 326.991C375.681 336.795 384.444 345.442 392.552 354.552C407.376 371.074 423.839 385.975 440.301 401.029C455.289 414.772 469.949 428.9 484.773 442.797C489.687 447.429 488.868 449.9 483.135 453.992C474.372 460.245 466.182 467.116 457.746 473.756C453.897 476.767 449.72 479.469 446.362 482.943C427.606 502.167 409.424 522.086 390.095 540.846C381.086 549.571 372.323 558.063 362.494 566.556C352.748 558.14 344.149 549.571 335.139 540.846C315.811 522.163 297.629 502.244 278.873 482.943C275.515 479.469 271.011 476.767 267.079 473.756C259.79 467.966 252.829 461.944 244.065 456.308ZM116.299 534.13C118.674 532.74 121.868 531.968 123.261 529.961C123.916 529.034 125.39 528.108 125.39 527.259C125.39 528.108 126.7 529.034 127.356 529.961C128.748 531.968 131.778 532.74 134.153 534.13C134.563 533.512 135.136 532.817 135.628 532.2C132.188 527.799 127.929 523.321 125.472 518.92C123.015 523.321 118.51 527.799 115.07 532.2C115.398 532.894 115.807 533.512 116.299 534.13ZM373.142 532.2C369.702 527.799 365.197 523.321 362.74 518.92C360.283 523.321 356.106 527.799 352.585 532.2C352.994 532.817 353.567 533.512 354.059 534.13C356.434 532.74 359.382 531.968 360.856 529.961C361.512 529.034 362.822 528.108 362.822 527.259C362.822 528.108 364.296 529.034 364.952 529.961C366.344 531.968 369.538 532.74 371.913 534.13C372.241 533.512 372.65 532.894 373.142 532.2ZM106.061 523.707C108.273 523.167 111.385 523.321 112.531 521.931C116.954 516.836 123.015 511.663 125.39 506.413C127.847 511.663 133.662 516.836 138.085 521.931C139.231 523.244 142.098 523.167 144.309 523.707C144.882 522.781 145.62 521.854 146.111 521.005C139.067 513.593 132.679 506.259 125.39 498.847C118.019 506.259 111.385 513.593 104.341 521.005C104.915 521.931 105.488 522.858 106.061 523.707ZM383.707 521.005C376.664 513.593 370.029 506.259 362.658 498.847C355.287 506.259 348.899 513.593 341.937 521.005C342.511 521.931 343.248 522.781 343.739 523.707C345.95 523.167 348.817 523.321 349.964 521.931C354.386 516.836 360.201 511.663 362.658 506.413C365.115 511.663 371.176 516.836 375.517 521.931C376.664 523.244 379.776 523.167 381.987 523.707C382.56 522.858 383.134 521.931 383.707 521.005ZM125.39 486.417C132.761 498.075 148.978 512.204 154.956 512.358C145.374 501.936 135.136 491.436 125.39 480.241C115.644 491.436 105.406 501.936 95.8235 512.358C101.802 512.281 118.019 498.152 125.39 486.417ZM392.225 512.358C382.642 501.936 372.405 491.436 362.658 480.241C352.912 491.436 342.674 501.936 333.092 512.358C339.071 512.281 355.287 498.152 362.658 486.417C370.029 498.152 386.246 512.281 392.225 512.358ZM93.9398 502.013C103.768 492.053 113.187 481.631 122.523 471.285C123.506 470.205 125.39 469.046 125.39 467.811C125.39 468.969 127.028 470.127 128.011 471.285C137.429 481.631 146.602 492.053 156.431 502.013C159.461 505.101 163.802 506.027 166.423 499.697C152.827 485.723 137.675 471.517 125.472 457.234C113.268 471.44 97.789 485.645 84.1934 499.697C86.6504 506.027 90.9094 505.178 93.9398 502.013ZM403.937 499.697C390.341 485.723 374.862 471.517 362.658 457.234C350.455 471.44 335.303 485.645 321.626 499.697C324.165 506.027 328.505 505.101 331.618 502.013C341.446 492.053 350.619 481.631 360.037 471.285C361.02 470.205 362.658 469.046 362.658 467.811C362.658 468.969 364.542 470.127 365.525 471.285C374.943 481.631 384.28 492.053 394.108 502.013C397.221 505.178 401.398 506.027 403.937 499.697ZM79.0337 494.524C94.595 477.925 113.105 462.793 125.308 444.882C137.511 462.793 155.775 477.925 171.337 494.524C176.578 491.59 176.66 489.042 172.893 485.954C170.354 483.947 167.815 481.94 165.604 479.623C157.495 470.977 149.878 461.944 141.524 453.528C136.692 448.665 130.959 444.727 125.554 440.326C125.39 440.558 125.226 440.713 125.226 440.944C125.226 440.713 124.817 440.558 124.653 440.326C119.247 444.727 113.432 448.665 108.6 453.528C100.246 461.944 92.5474 470.977 84.5211 479.623C82.3097 481.94 79.7707 483.947 77.2317 485.954C73.4643 489.042 73.8739 491.59 79.0337 494.524ZM410.816 486.031C408.277 484.024 405.657 482.017 403.527 479.701C395.419 471.054 387.802 462.021 379.448 453.606C374.616 448.742 368.801 444.804 363.395 440.404C363.232 440.635 362.822 440.79 362.822 441.021C362.822 440.79 362.658 440.635 362.494 440.404C357.089 444.804 351.356 448.742 346.524 453.606C338.17 462.021 330.553 471.054 322.445 479.701C320.233 482.017 317.694 484.024 315.155 486.031C311.388 489.12 311.47 491.667 316.712 494.601C332.273 478.002 350.537 462.87 362.74 444.959C374.944 462.87 393.453 478.002 409.015 494.601C414.256 491.59 414.584 489.042 410.816 486.031ZM112.613 361.732C102.294 370.92 91.8922 379.953 81.6545 389.217C75.1024 395.162 68.3865 401.107 62.4077 407.515C56.2651 414.077 51.0234 421.334 45.2903 428.283C42.7513 431.294 40.2943 434.459 37.182 436.929C28.5005 443.878 28.3366 444.727 36.9363 453.451C55.2822 434.227 73.1368 415.467 91.0732 396.783C98.1986 389.372 105.815 382.346 112.368 374.548C114.743 371.769 114.579 367.137 115.562 363.354C114.661 362.736 113.678 362.196 112.613 361.732ZM372.405 363.199C373.387 366.982 373.305 371.615 375.599 374.394C382.151 382.192 389.768 389.217 396.893 396.629C414.829 415.312 432.684 434.073 451.03 453.297C459.63 444.573 459.466 443.723 450.784 436.775C447.672 434.305 445.215 431.139 442.676 428.128C436.943 421.257 431.701 414 425.559 407.36C419.58 400.875 412.864 395.008 406.312 389.063C396.074 379.798 385.673 370.765 375.353 361.578C374.452 362.196 373.387 362.736 372.405 363.199ZM119.083 382.809C117.937 382.423 116.872 382.037 115.725 381.651C91.7283 407.283 67.6494 432.992 42.5056 459.859C51.1053 459.782 56.7564 455.999 64.3733 447.97C72.3996 439.554 80.9993 431.525 89.1894 423.187C99.1814 413.073 109.255 403.037 118.674 392.46C120.312 390.453 119.002 386.052 119.083 382.809ZM369.456 392.46C378.875 403.037 388.949 413.073 398.941 423.187C407.131 431.525 415.649 439.554 423.757 447.97C431.374 455.999 437.025 459.705 445.624 459.859C420.481 432.992 396.402 407.283 372.405 381.651C371.258 382.037 370.193 382.423 369.047 382.809C369.047 386.052 367.736 390.453 369.456 392.46ZM118.51 402.574C96.8063 424.886 75.1024 447.12 53.0709 469.818C58.6402 473.447 61.7524 470.205 64.619 467.425C76.4128 455.767 88.2885 444.187 99.8366 432.297C107.044 424.963 113.842 417.242 120.476 409.445C121.54 408.21 121.131 405.739 121.377 403.809C120.394 403.346 119.411 402.96 118.51 402.574ZM366.753 403.732C366.999 405.662 366.508 408.132 367.654 409.368C374.288 417.165 381.168 424.886 388.293 432.22C399.842 444.11 411.635 455.767 423.511 467.348C426.378 470.205 429.49 473.37 435.059 469.741C413.028 447.12 391.324 424.808 369.62 402.496C368.637 402.96 367.736 403.346 366.753 403.732ZM126.864 418.864C126.373 419.018 125.39 419.095 125.39 419.25C125.39 419.095 124.08 419.018 123.67 418.864C117.364 424.886 110.566 430.83 104.341 436.929C96.8882 444.341 89.4351 451.753 82.2278 459.396C77.068 464.8 72.072 470.436 67.4855 476.304C66.257 477.848 66.9941 480.704 66.8303 482.943C68.7959 482.171 71.2531 481.785 72.6454 480.473C85.5858 467.58 98.2804 454.532 111.057 441.485C115.07 437.393 119.739 433.533 122.933 428.977C124.325 426.97 125.39 424.345 125.39 421.72C125.39 424.345 126.209 426.97 127.601 428.977C130.877 433.533 135.382 437.393 139.395 441.485C152.172 454.532 164.703 467.58 177.643 480.473C178.953 481.785 181.492 482.171 183.458 482.943C183.294 480.704 184.031 477.848 182.803 476.304C178.216 470.436 173.302 464.8 168.142 459.396C160.935 451.753 153.564 444.341 146.111 436.929C139.805 430.83 133.171 424.886 126.864 418.864ZM342.019 436.929C334.566 444.341 327.195 451.753 319.988 459.396C314.828 464.8 309.832 470.436 305.327 476.304C304.099 477.848 304.836 480.704 304.672 482.943C306.638 482.171 309.177 481.785 310.487 480.473C323.427 467.58 335.958 454.532 348.735 441.485C352.748 437.393 357.253 433.533 360.529 428.977C361.921 426.97 362.74 424.345 362.74 421.72C362.74 424.345 363.805 426.97 365.197 428.977C368.473 433.533 373.142 437.393 377.073 441.485C389.85 454.532 402.544 467.58 415.485 480.473C416.795 481.785 419.334 482.171 421.3 482.943C421.136 480.704 421.873 477.848 420.644 476.304C416.058 470.436 411.062 464.8 405.902 459.396C398.695 451.753 391.242 444.341 383.789 436.929C377.564 430.83 370.767 424.886 364.46 418.864C363.969 419.018 362.74 419.095 362.74 419.25C362.74 419.095 361.757 419.018 361.266 418.864C354.878 424.886 348.244 430.83 342.019 436.929ZM129.731 409.368C136.365 417.165 143.244 424.886 150.37 432.22C161.918 444.11 173.712 455.767 185.587 467.348C188.454 470.205 191.566 473.37 197.136 469.741C175.104 447.12 153.4 424.808 131.696 402.496C130.795 402.882 129.813 403.268 128.912 403.654C129.157 405.662 128.666 408.132 129.731 409.368ZM359.218 403.732C358.236 403.346 357.335 402.96 356.434 402.574C334.73 424.886 313.026 447.12 290.994 469.818C296.564 473.447 299.676 470.205 302.543 467.425C314.336 455.767 326.212 444.187 337.76 432.297C344.968 424.963 351.765 417.242 358.399 409.445C359.382 408.132 358.973 405.662 359.218 403.732ZM131.123 382.809C131.205 386.052 129.813 390.53 131.614 392.46C141.033 403.037 151.107 413.073 161.099 423.187C169.289 431.525 177.807 439.554 185.915 447.97C193.532 455.999 199.183 459.705 207.783 459.859C182.639 432.992 158.56 407.283 134.563 381.651C133.334 382.037 132.188 382.423 131.123 382.809ZM353.567 381.651C329.57 407.283 305.491 432.992 280.347 459.859C288.947 459.782 294.598 455.999 302.215 447.97C310.241 439.554 318.841 431.525 327.031 423.187C337.023 413.073 347.097 403.037 356.516 392.46C358.236 390.53 356.925 386.129 357.007 382.809C355.86 382.423 354.714 382.037 353.567 381.651ZM212.943 436.929C209.83 434.459 207.373 431.294 204.834 428.283C199.101 421.411 193.859 414.154 187.717 407.515C181.738 401.03 175.022 395.162 168.47 389.217C158.232 379.953 147.831 370.92 137.511 361.732C136.528 362.196 135.464 362.736 134.481 363.277C135.464 367.06 135.382 371.692 137.675 374.471C144.227 382.269 151.844 389.294 158.969 396.706C176.906 415.39 194.76 434.15 213.106 453.374C221.788 444.727 221.542 443.801 212.943 436.929ZM274.942 453.451C293.288 434.227 311.142 415.467 329.079 396.783C336.204 389.372 343.821 382.346 350.373 374.548C352.748 371.769 352.584 367.137 353.567 363.354C352.584 362.813 351.52 362.35 350.537 361.81C340.217 370.997 329.816 380.03 319.578 389.294C313.026 395.239 306.31 401.184 300.331 407.592C294.189 414.154 288.947 421.411 283.214 428.36C280.675 431.371 278.218 434.536 275.106 437.007C266.506 443.801 266.26 444.727 274.942 453.451Z" fill="#3BA677"/>
<path d="M397.221 153.407C394.027 155.723 391.079 158.812 389.441 162.054C385.673 162.595 383.38 161.823 376.828 164.602C376.091 163.907 374.944 162.826 373.798 161.745C377.729 156.496 375.927 156.727 376.5 154.72C371.996 152.944 372.979 152.018 369.539 158.58C367.082 157.731 364.543 156.804 361.185 155.569C365.116 151.554 364.87 146.382 369.293 142.908C372.405 140.437 373.879 136.114 376.091 132.639C379.367 127.621 383.052 123.066 388.212 119.592C390.751 117.893 392.553 115.191 394.928 113.261C397.549 111.177 401.644 111.022 404.101 113.029C406.476 114.96 408.933 117.198 410.244 119.823C412.373 123.992 413.602 128.625 414.912 131.945C410.653 137.349 407.131 141.904 403.528 146.305C401.644 148.775 399.678 151.632 397.221 153.407Z" fill="#3BA677"/>
<path d="M317.876 153.407C321.07 155.723 324.019 158.812 325.657 162.054C329.424 162.595 331.799 161.823 338.27 164.602C339.007 163.907 340.153 162.826 341.3 161.745C337.369 156.496 339.171 156.727 338.597 154.72C343.102 152.944 342.119 152.018 345.559 158.58C348.016 157.731 350.555 156.804 353.913 155.569C349.981 151.554 350.227 146.382 345.805 142.908C342.692 140.437 341.218 136.114 339.007 132.639C335.731 127.621 332.045 123.066 326.885 119.592C324.346 117.893 322.545 115.191 320.169 113.261C317.549 111.177 313.454 111.022 310.996 113.029C308.621 114.96 306.164 117.198 304.854 119.823C302.724 123.992 301.496 128.625 300.186 131.945C304.444 137.349 307.966 141.904 311.57 146.305C313.453 148.775 315.501 151.632 317.876 153.407Z" fill="#3BA677"/>
<path d="M74.4013 73.0807C76.8583 75.088 80.9533 74.9336 83.5742 72.8491C85.9493 70.919 87.7512 68.2168 90.2902 66.5183C95.4499 63.0442 99.2174 58.4891 102.412 53.4708C104.623 49.9966 106.097 45.6732 109.209 43.2027C113.632 39.7285 113.386 34.5558 117.318 30.5411C113.96 29.3831 111.421 28.4566 108.964 27.5302C105.524 34.1697 106.507 33.1661 102.002 31.3904C102.575 29.3831 100.774 29.6147 104.705 24.3648C103.558 23.2839 102.412 22.2031 101.674 21.5082C95.1224 24.2876 92.8291 23.5928 89.0616 24.056C87.4236 27.2986 84.4752 30.4639 81.281 32.7029C78.824 34.4786 76.8583 37.3351 74.8926 39.7285C71.3709 44.1291 67.7672 48.6842 63.5083 54.0885C64.7369 57.4082 65.9654 62.0405 68.1768 66.2095C69.651 68.9117 72.108 71.1506 74.4013 73.0807Z" fill="#3BA677"/>
<path d="M174.744 73.0807C172.287 75.088 168.192 74.9336 165.571 72.8491C163.196 70.919 161.394 68.2168 158.855 66.5183C153.695 63.0442 149.928 58.4891 146.734 53.4708C144.522 49.9966 143.048 45.6732 139.936 43.2027C135.513 39.7285 135.759 34.5558 131.828 30.5411C135.185 29.3831 137.724 28.4566 140.181 27.5302C143.621 34.1697 142.638 33.1661 147.143 31.3904C146.57 29.3831 148.372 29.6147 144.44 24.3648C145.587 23.2839 146.734 22.2031 147.471 21.5082C154.023 24.2876 156.316 23.5928 160.084 24.056C161.722 27.2986 164.67 30.4639 167.864 32.7029C170.321 34.4786 172.287 37.3351 174.252 39.7285C177.774 44.1291 181.378 48.6842 185.637 54.0885C184.408 57.4082 183.18 62.0405 180.968 66.2095C179.576 68.9117 177.119 71.1506 174.744 73.0807Z" fill="#3BA677"/>
<path d="M244.066 125.332C238.825 125.796 234.484 124.56 231.29 121.472C224.41 114.987 224 104.487 229.897 98.9285C234.156 94.9139 238.825 93.5242 244.066 94.6051C249.308 93.5242 254.058 94.9911 258.235 98.9285C264.132 104.487 263.722 114.987 256.843 121.472C253.649 124.56 249.308 125.796 244.066 125.332Z" fill="#3BA677"/>
<path d="M244.067 79.8594C238.825 80.9403 233.665 79.4734 229.488 75.536C223.591 69.9773 224.82 59.4775 231.7 52.9924C234.894 49.9042 238.825 48.6689 244.067 49.1321C249.309 48.6689 253.24 49.9042 256.434 52.9924C263.314 59.5547 264.542 69.9773 258.645 75.536C254.386 79.5506 249.309 80.9403 244.067 79.8594Z" fill="#3BA677"/>
<path d="M244.067 365.207C238.825 365.361 231.782 363.199 227.277 358.644C222.035 353.317 223.837 343.59 230.799 337.104C234.238 333.862 238.825 332.549 244.067 332.935C249.308 332.549 253.895 333.862 257.335 337.104C264.296 343.59 266.098 353.317 260.857 358.644C256.352 363.199 249.308 365.361 244.067 365.207Z" fill="#3BA677"/>
<path d="M244.065 228.709C238.824 228.169 234.401 225.544 230.224 222.224C222.689 216.202 222.607 208.404 228.176 203.154C232.271 199.294 238.742 198.136 243.983 199.526C249.225 198.136 255.695 199.294 259.79 203.154C265.36 208.404 265.278 216.202 257.743 222.224C253.73 225.544 249.307 228.169 244.065 228.709Z" fill="#3BA677"/>
<path d="M244.067 307.458C244.067 307.689 242.102 307.921 241.528 308.153C238.498 307.072 235.222 305.45 233.011 303.212C227.523 297.653 227.605 289.778 233.502 284.296C235.713 282.289 238.989 280.822 241.61 279.973C242.183 280.127 244.067 280.359 244.067 280.591C244.067 280.359 245.951 280.127 246.524 279.973C249.145 280.822 252.421 282.289 254.632 284.296C260.529 289.778 260.611 297.653 255.124 303.212C252.913 305.45 249.636 307.072 246.606 308.153C246.033 307.921 244.067 307.689 244.067 307.458Z" fill="#3BA677"/>
<path d="M27.5199 121.472C20.6402 114.987 19.8212 104.488 25.7181 98.9288C32.5159 92.5209 40.788 92.6753 47.7496 99.3149C55.0388 106.186 55.1207 114.679 47.9952 121.55C42.5078 126.8 33.0892 126.8 27.5199 121.472Z" fill="#3BA677"/>
<path d="M460.532 121.472C467.412 114.987 468.231 104.488 462.334 98.9288C455.536 92.5209 447.264 92.6753 440.303 99.3149C433.013 106.186 432.931 114.679 440.057 121.55C445.626 126.8 454.963 126.8 460.532 121.472Z" fill="#3BA677"/>
<path d="M25.7181 75.536C19.8212 69.9773 20.6402 59.4776 27.5199 52.9924C33.0892 47.6653 42.5078 47.6653 47.9952 52.9924C55.1207 59.8636 55.0388 68.356 47.7496 75.2272C40.7061 81.7896 32.434 81.944 25.7181 75.536Z" fill="#3BA677"/>
<path d="M462.416 75.536C468.313 69.9773 467.494 59.4776 460.614 52.9924C455.045 47.6653 445.626 47.6653 440.139 52.9924C433.014 59.8636 433.096 68.356 440.385 75.2272C447.346 81.7896 455.618 81.944 462.416 75.536Z" fill="#3BA677"/>
<path d="M26.4539 222.224C18.9189 216.202 18.4275 208.405 23.9968 203.155C31.1223 196.438 42.5066 197.828 51.8433 206.552C55.6927 210.103 53.6452 220.603 48.0759 225.853C42.0152 231.72 33.5793 227.937 26.4539 222.224Z" fill="#3BA677"/>
<path d="M461.597 222.224C469.132 216.202 469.624 208.405 464.054 203.155C456.929 196.438 445.545 197.828 436.208 206.552C432.359 210.103 434.406 220.603 439.976 225.853C446.036 231.72 454.472 227.937 461.597 222.224Z" fill="#3BA677"/>
<path d="M37.7576 308.076C34.7272 306.995 31.8608 305.373 29.6494 303.134C24.162 297.576 24.4077 289.701 30.3865 284.219C32.5978 282.212 35.1368 280.745 37.7576 279.896C40.3784 280.745 42.9174 282.212 45.1287 284.219C51.0256 289.701 51.3533 297.576 45.8659 303.134C43.6545 305.373 40.788 307.072 37.7576 308.076Z" fill="#3BA677"/>
<path d="M450.296 308.076C453.326 306.995 456.193 305.373 458.404 303.134C463.891 297.576 463.645 289.701 457.667 284.219C455.455 282.212 452.916 280.745 450.296 279.896C447.675 280.745 445.136 282.212 442.924 284.219C437.027 289.701 436.7 297.576 442.187 303.134C444.399 305.373 447.265 307.072 450.296 308.076Z" fill="#3BA677"/>
<path d="M46.5204 343.358C41.033 348.685 31.6962 348.608 26.045 343.358C19.1653 336.795 18.3462 326.373 24.2431 320.814C31.0409 314.406 39.313 314.56 46.2746 321.2C53.5638 327.994 53.6458 336.486 46.5204 343.358Z" fill="#3BA677"/>
<path d="M441.531 343.358C447.018 348.685 456.355 348.608 462.006 343.358C468.886 336.795 469.705 326.373 463.808 320.814C457.01 314.406 448.738 314.56 441.776 321.2C434.487 327.994 434.405 336.486 441.531 343.358Z" fill="#3BA677"/>
<path d="M142.262 295.336C138.659 296.803 135.137 298.347 131.533 299.583C130.223 300.046 128.831 300.355 127.438 300.509C126.046 300.355 124.735 300.046 123.343 299.583C119.658 298.347 116.136 296.803 112.614 295.336C98.6909 289.701 91.975 279.973 90.5008 265.458C89.0266 251.021 100.493 247.47 109.666 241.911C113.679 239.441 120.477 238.746 127.438 239.286C134.4 238.746 141.198 239.441 145.211 241.911C154.302 247.47 165.768 251.021 164.376 265.458C162.902 279.973 156.104 289.778 142.262 295.336ZM113.515 253.569C112.041 253.878 110.567 254.187 109.092 254.495C109.502 258.278 110.157 262.139 110.403 265.922C110.73 270.168 111.795 274.646 110.73 278.506C108.355 287.076 113.187 287.925 120.313 288.156C121.05 275.495 119.002 264.069 113.515 253.569ZM141.28 253.569C135.792 264.069 133.745 275.495 134.4 288.156C141.525 287.925 146.357 286.998 143.982 278.506C142.918 274.646 143.982 270.091 144.31 265.922C144.638 262.139 145.211 258.278 145.62 254.495C144.228 254.187 142.754 253.878 141.28 253.569Z" fill="#3BA677"/>
<path d="M345.868 295.336C349.472 296.803 352.994 298.347 356.597 299.583C357.908 300.046 359.3 300.355 360.693 300.509C362.085 300.355 363.395 300.046 364.788 299.583C368.473 298.347 371.995 296.803 375.517 295.336C389.44 289.701 396.156 279.973 397.63 265.458C399.104 251.021 387.638 247.47 378.465 241.911C374.452 239.441 367.654 238.746 360.693 239.286C353.731 238.746 346.933 239.441 342.92 241.911C333.829 247.47 322.363 251.021 323.755 265.458C325.147 279.973 331.945 289.778 345.868 295.336ZM374.534 253.569C376.008 253.878 377.482 254.187 378.957 254.495C378.547 258.278 377.892 262.139 377.646 265.922C377.318 270.168 376.254 274.646 377.319 278.506C379.694 287.076 374.862 287.925 367.736 288.156C366.999 275.495 369.046 264.069 374.534 253.569ZM346.769 253.569C352.257 264.069 354.304 275.495 353.649 288.156C346.523 287.925 341.691 286.998 344.066 278.506C345.131 274.646 344.067 270.091 343.739 265.922C343.411 262.139 342.838 258.278 342.428 254.495C343.903 254.187 345.295 253.878 346.769 253.569Z" fill="#3BA677"/>
<path d="M140.624 206.166C131.451 214.349 120.559 214.735 112.942 207.092C102.131 196.206 103.032 187.328 116.3 175.516C124.736 168.027 133.417 170.034 145.129 182.155C151.845 189.104 150.289 197.596 140.624 206.166ZM121.951 184.549C115.972 189.721 114.088 194.894 116.136 199.295C117.528 202.383 122.688 203.85 126.21 206.089C127.029 205.394 127.766 204.699 128.585 204.004C126.456 197.905 124.408 191.883 121.951 184.549ZM130.632 182.618C132.352 188.718 133.663 193.736 135.219 199.295C139.314 190.957 138.495 187.482 130.632 182.618Z" fill="#3BA677"/>
<path d="M347.426 206.166C356.599 214.349 367.492 214.735 375.109 207.092C385.92 196.206 385.019 187.328 371.751 175.516C363.315 168.027 354.633 170.034 342.921 182.155C336.205 189.104 337.843 197.596 347.426 206.166ZM366.181 184.549C372.16 189.721 374.044 194.894 371.996 199.295C370.604 202.383 365.444 203.85 361.922 206.089C361.103 205.394 360.366 204.699 359.547 204.004C361.595 197.905 363.642 191.883 366.181 184.549ZM357.418 182.618C355.698 188.718 354.387 193.736 352.831 199.295C348.736 190.957 349.555 187.482 357.418 182.618Z" fill="#3BA677"/>
<g clip-path="url(#clip1_307_492)">
<path d="M123.732 46.8403C122.34 48.5796 120.538 49.9014 118.572 51.2928C111.611 56.0236 105.877 61.8675 99.5711 67.294C98.834 67.9201 98.5882 68.9637 98.0149 69.7985C97.1959 71.0508 96.6226 72.5118 95.3941 73.4162C92.3638 75.712 90.6438 78.5644 89.4972 81.3472C86.4668 82.182 83.7641 82.9473 80.8975 83.7126C81.3889 84.617 82.208 85.5214 81.9623 85.6605C78.9319 88.7912 81.7166 91.2262 82.6994 94.009C84.0917 97.9049 86.7945 99.8529 91.2991 100.409C92.4457 100.549 93.5103 101.175 95.1484 101.87C93.3465 103.888 91.8724 105.488 90.48 107.158C89.7429 107.993 89.1696 108.897 88.6781 109.801C87.0401 112.932 85.484 116.063 83.7641 119.611C86.3849 124.689 91.1352 125.733 101.373 123.089C101.946 123.507 102.356 123.646 102.438 123.924C104.485 127.194 106.696 129.629 111.938 128.933C116.197 128.377 120.128 127.124 122.831 124.62C123.159 124.342 123.404 124.063 123.732 123.785C124.06 124.063 124.305 124.342 124.633 124.62C127.336 127.124 131.267 128.377 135.526 128.933C140.768 129.629 142.979 127.194 145.026 123.924C145.19 123.646 145.6 123.507 146.091 123.089C156.329 125.733 161.079 124.62 163.7 119.611C161.898 116.132 160.424 112.932 158.786 109.801C158.294 108.897 157.639 107.993 156.984 107.158C155.592 105.488 154.117 103.888 152.316 101.87C153.954 101.244 155.018 100.549 156.165 100.409C160.67 99.8529 163.372 97.9049 164.765 94.009C165.747 91.1566 168.532 88.7216 165.502 85.6605C165.338 85.4518 166.075 84.617 166.566 83.7126C163.618 82.8777 160.997 82.182 157.967 81.3472C156.82 78.5644 155.018 75.712 152.07 73.4162C150.923 72.5118 150.268 71.0508 149.449 69.7985C148.876 68.9637 148.63 67.9201 147.893 67.294C141.668 61.8675 135.853 56.0236 128.892 51.2928C126.844 49.9014 125.124 48.5796 123.732 46.8403ZM128.892 1121.84C135.853 1117.11 141.587 1111.27 147.893 1105.84C148.63 1105.21 148.876 1104.17 149.449 1103.33C150.268 1102.08 150.841 1100.62 152.07 1099.72C155.1 1097.42 156.82 1094.57 157.967 1091.79C160.997 1090.95 163.7 1090.19 166.566 1089.42C166.075 1088.52 165.256 1087.61 165.502 1087.47C168.532 1084.34 165.747 1081.91 164.765 1079.12C163.372 1075.23 160.67 1073.28 156.165 1072.72C155.018 1072.58 153.954 1071.96 152.316 1071.26C154.117 1069.24 155.592 1067.64 156.984 1065.98C157.721 1065.14 158.294 1064.24 158.786 1063.33C160.424 1060.2 161.98 1057.07 163.7 1053.52C161.079 1048.44 156.329 1047.4 146.091 1050.04C145.518 1049.63 145.108 1049.49 145.026 1049.21C142.979 1045.94 140.768 1043.5 135.526 1044.2C131.267 1044.76 127.336 1046.01 124.633 1048.51C124.305 1048.79 124.06 1049.07 123.732 1049.35C123.404 1049.07 123.159 1048.79 122.831 1048.51C120.128 1046.01 116.197 1044.76 111.938 1044.2C106.696 1043.5 104.485 1045.94 102.438 1049.21C102.274 1049.49 101.864 1049.63 101.373 1050.04C91.1352 1047.4 86.3849 1048.51 83.7641 1053.52C85.5659 1057 87.0401 1060.2 88.6781 1063.33C89.1696 1064.24 89.8248 1065.14 90.48 1065.98C91.8724 1067.64 93.3465 1069.24 95.1484 1071.26C93.5103 1071.89 92.4457 1072.58 91.2991 1072.72C86.7945 1073.28 84.0917 1075.23 82.6994 1079.12C81.7166 1081.98 78.9319 1084.41 81.9623 1087.47C82.1261 1087.68 81.3889 1088.52 80.8975 1089.42C83.846 1090.26 86.4668 1090.95 89.4972 1091.79C90.6438 1094.57 92.4457 1097.42 95.3941 1099.72C96.5407 1100.62 97.1959 1102.08 98.0149 1103.33C98.5882 1104.17 114.011 1064.21 114.748 1064.84C120.972 1070.27 113.886 1064.79 120.848 1069.52C122.895 1070.92 141.415 1080.34 142.807 1082.01C144.2 1080.28 126.844 1123.23 128.892 1121.84ZM123.732 95.8178C123.322 95.4004 122.913 94.9829 122.913 94.9134C123.159 94.6351 123.486 94.2873 123.732 94.009C123.978 94.3568 124.223 94.6351 124.551 94.9134C124.551 94.9829 124.142 95.4004 123.732 95.8178C123.732 95.8874 123.732 95.8874 123.732 95.8178ZM123.732 70.3551C123.568 70.4247 123.322 70.5638 123.159 70.6334C122.258 68.4071 122.749 66.9461 123.732 65.7634C124.797 66.9461 125.206 68.4071 124.305 70.6334C124.141 70.5638 123.896 70.4942 123.732 70.3551ZM124.305 1102.43C125.206 1104.66 124.715 1106.12 123.732 1107.3C122.667 1106.12 122.258 1104.66 123.159 1102.43C123.322 1102.57 123.568 1102.64 123.732 1102.71C123.896 1102.64 124.141 1102.57 124.305 1102.43Z" fill="#3BA677"/>
</g>
</g>
<defs>
<clipPath id="clip0_307_492">
<rect width="109.799" height="115.54" fill="white" transform="translate(300.186)"/>
</clipPath>
<clipPath id="clip1_307_492">
<rect width="92.7189" height="99.9263" fill="white" transform="translate(80.5882 46.8403)"/>
</clipPath>
</defs>
</svg>
