<svg width="267" height="678" viewBox="0 0 267 678" fill="none" xmlns="http://www.w3.org/2000/svg">
<g opacity="0.1">
<path d="M54.4226 351.833C54.4849 351.791 54.5471 351.749 54.5471 351.707C54.7964 351.707 55.0457 351.749 55.2327 351.749C55.2327 351.791 55.2326 351.833 55.1703 351.833C55.1703 351.875 55.1704 351.918 55.2327 351.918C54.9834 351.918 54.734 351.96 54.5471 351.96C54.5471 351.918 54.4849 351.875 54.4226 351.833Z" fill="#F9985F"/>
<path d="M133.499 96.8103C135.307 98.1112 137.675 98.9505 139.918 99.9156C143.284 101.342 147.834 101.762 149.454 104.825C149.517 104.951 149.953 104.993 150.202 105.077C153.443 106.378 155.25 108.77 158.304 110.281C155.313 111.749 153.443 114.183 150.202 115.484C149.953 115.568 149.517 115.61 149.454 115.736C147.834 118.799 143.284 119.219 139.918 120.646C137.675 121.611 135.307 122.45 133.499 123.751C131.692 122.45 129.323 121.611 127.079 120.646C123.714 119.219 119.164 118.799 117.544 115.736C117.482 115.61 117.045 115.568 116.796 115.484C113.555 114.183 111.748 111.791 108.694 110.281C111.685 108.812 113.555 106.378 116.796 105.077C117.045 104.993 117.482 104.951 117.544 104.825C119.164 101.762 123.714 101.342 127.079 99.9156C129.323 98.9924 131.629 98.1531 133.499 96.8103Z" fill="#F9985F"/>
<path d="M133.499 580.484C135.307 579.184 137.675 578.344 139.918 577.379C143.284 575.952 147.834 575.533 149.454 572.469C149.517 572.343 149.953 572.301 150.202 572.218C153.443 570.917 155.25 568.525 158.304 567.014C155.313 565.545 153.443 563.111 150.202 561.811C149.953 561.727 149.517 561.685 149.454 561.559C147.834 558.495 143.284 558.076 139.918 556.649C137.675 555.684 135.307 554.845 133.499 553.544C131.692 554.845 129.323 555.684 127.079 556.649C123.714 558.076 119.164 558.495 117.544 561.559C117.482 561.685 117.045 561.727 116.796 561.811C113.555 563.111 111.748 565.503 108.694 567.014C111.685 568.483 113.555 570.917 116.796 572.218C117.045 572.301 117.482 572.343 117.544 572.469C119.164 575.533 123.714 575.952 127.079 577.379C129.323 578.302 131.629 579.142 133.499 580.484Z" fill="#F9985F"/>
<path d="M133.5 13.093C134.559 14.1421 135.93 14.9394 137.426 15.7787C142.724 18.6322 147.086 22.1572 151.885 25.4304C152.446 25.808 152.633 26.4375 153.07 26.9411C153.693 27.6964 154.129 28.5776 155.064 29.1232C157.37 30.508 158.679 32.2285 159.551 33.907C161.857 34.4106 163.914 34.8722 166.095 35.3338C165.722 35.8794 165.098 36.4249 165.285 36.5088C167.591 38.3972 165.472 39.8659 164.724 41.5445C163.665 43.8944 161.608 45.0694 158.18 45.4051C157.308 45.4891 156.497 45.8667 155.251 46.2864C156.622 47.5033 157.744 48.4685 158.804 49.4756C159.365 49.9792 159.801 50.5247 160.175 51.0702C161.421 52.9586 162.605 54.847 163.914 56.9871C161.92 60.0505 158.305 60.6799 150.514 59.0853C150.078 59.3371 149.766 59.421 149.704 59.5889C148.146 61.5612 146.463 63.0299 142.474 62.6103C139.233 62.2746 136.242 61.5192 134.185 60.0085C133.936 59.8407 133.749 59.6728 133.5 59.5049C133.25 59.6728 133.063 59.8407 132.814 60.0085C130.757 61.5192 127.766 62.2746 124.525 62.6103C120.536 63.0299 118.853 61.5612 117.295 59.5889C117.17 59.421 116.859 59.3371 116.485 59.0853C108.694 60.6799 105.079 60.0085 103.085 56.9871C104.456 54.8889 105.578 52.9586 106.824 51.0702C107.198 50.5247 107.697 49.9792 108.196 49.4756C109.255 48.4685 110.377 47.5033 111.748 46.2864C110.502 45.9087 109.691 45.4891 108.819 45.4051C105.391 45.0694 103.334 43.8944 102.275 41.5445C101.527 39.8239 99.4079 38.3552 101.714 36.5088C101.839 36.3829 101.278 35.8794 100.904 35.3338C103.147 34.8303 105.142 34.4106 107.448 33.907C108.32 32.2285 109.691 30.508 111.935 29.1232C112.808 28.5776 113.306 27.6964 113.93 26.9411C114.366 26.4375 114.553 25.808 115.114 25.4304C119.85 22.1572 124.275 18.6322 129.573 15.7787C131.069 14.9394 132.44 14.1421 133.5 13.093ZM129.511 661.517C124.213 658.664 119.85 655.139 115.051 651.866C114.49 651.488 114.304 650.858 113.867 650.355C113.244 649.599 112.808 648.718 111.873 648.173C109.567 646.788 108.258 645.067 107.386 643.389C105.08 642.885 103.023 642.424 100.841 641.962C101.215 641.417 101.838 640.871 101.652 640.787C99.3455 638.899 101.464 637.43 102.212 635.751C103.272 633.401 105.329 632.227 108.757 631.891C109.629 631.807 110.439 631.429 111.686 631.01C110.315 629.793 109.193 628.827 108.133 627.82C107.572 627.317 107.136 626.771 106.762 626.226C105.516 624.337 104.331 622.449 103.023 620.309C105.017 617.245 108.632 616.616 116.423 618.211C116.859 617.959 117.17 617.875 117.233 617.707C118.791 615.735 120.474 614.266 124.463 614.686C127.703 615.021 130.695 615.777 132.752 617.287C133.001 617.455 133.188 617.623 133.437 617.791C133.687 617.623 133.874 617.455 134.123 617.287C136.18 615.777 139.171 615.021 142.412 614.686C146.401 614.266 148.084 615.735 149.642 617.707C149.766 617.875 150.078 617.959 150.452 618.211C158.242 616.616 161.857 617.287 163.852 620.309C162.481 622.407 161.359 624.337 160.112 626.226C159.738 626.771 159.24 627.317 158.741 627.82C157.682 628.827 156.56 629.793 155.189 631.01C156.435 631.387 157.245 631.807 158.118 631.891C161.546 632.227 163.603 633.401 164.662 635.751C165.41 637.472 167.529 638.941 165.223 640.787C165.098 640.913 165.659 641.417 166.033 641.962C163.789 642.466 161.795 642.885 159.489 643.389C158.616 645.067 157.308 646.788 155.002 648.173C154.129 648.718 153.63 649.599 153.007 650.355C152.571 650.858 152.384 651.488 151.823 651.866C147.086 655.139 142.661 658.664 137.364 661.517C135.805 662.356 134.497 663.196 133.437 664.203C132.44 663.154 131.069 662.356 129.511 661.517ZM133.5 42.6355C133.811 42.3837 134.123 42.1319 134.123 42.09C133.936 41.9221 133.687 41.7123 133.5 41.5445C133.313 41.7543 133.126 41.9221 132.876 42.09C132.814 42.1319 133.126 42.3837 133.5 42.6355C133.437 42.6775 133.437 42.6775 133.5 42.6355ZM133.437 634.618C133.126 634.912 132.814 635.164 132.876 635.206C133.063 635.374 133.313 635.584 133.5 635.751C133.687 635.542 133.874 635.374 134.123 635.206C134.123 635.164 133.811 634.912 133.437 634.618ZM133.5 27.2768C133.624 27.3187 133.811 27.4027 133.936 27.4446C134.621 26.1018 134.248 25.2205 133.5 24.5072C132.689 25.2205 132.378 26.1018 133.063 27.4446C133.188 27.4027 133.313 27.3607 133.5 27.2768ZM133.001 649.809C132.315 651.152 132.689 652.033 133.437 652.747C134.247 652.033 134.559 651.152 133.874 649.809C133.749 649.893 133.562 649.935 133.437 649.977C133.313 649.935 133.188 649.893 133.001 649.809Z" fill="#F9985F"/>
<path d="M133.5 161.057C133.749 160.889 133.936 160.721 134.185 160.554C136.242 159.043 139.234 158.288 142.474 157.952C146.463 157.532 148.146 159.001 149.704 160.973C149.829 161.141 150.14 161.225 150.514 161.477C158.305 159.882 161.92 160.554 163.914 163.575C162.543 165.673 161.421 167.604 160.175 169.492C159.801 170.037 159.302 170.583 158.804 171.087C157.744 172.094 156.622 173.059 155.251 174.276C156.498 174.653 157.308 175.073 158.18 175.157C161.608 175.493 163.665 176.668 164.725 179.018C165.473 180.738 167.591 182.207 165.285 184.053C165.161 184.179 165.722 184.683 166.096 185.228C163.852 185.732 161.857 186.151 159.551 186.655C158.679 188.334 157.37 190.054 155.064 191.439C154.192 191.984 153.693 192.866 153.07 193.621C152.633 194.125 152.447 194.754 151.886 195.132C147.149 198.405 142.724 201.93 137.426 204.783C135.868 205.623 134.559 206.462 133.5 207.469C132.44 206.42 131.069 205.623 129.573 204.783C124.275 201.93 119.913 198.405 115.114 195.132C114.553 194.754 114.366 194.125 113.93 193.621C113.307 192.866 112.87 191.984 111.935 191.439C109.629 190.054 108.32 188.334 107.448 186.655C105.142 186.151 103.085 185.69 100.904 185.228C101.278 184.683 101.901 184.137 101.714 184.053C99.408 182.165 101.527 180.696 102.275 179.018C103.334 176.668 105.391 175.493 108.819 175.157C109.692 175.073 110.502 174.695 111.748 174.276C110.377 173.059 109.255 172.094 108.196 171.087C107.635 170.583 107.198 170.037 106.824 169.492C105.578 167.604 104.394 165.715 103.085 163.575C105.08 160.512 108.694 159.882 116.485 161.477C116.921 161.225 117.233 161.141 117.295 160.973C118.853 159.001 120.536 157.532 124.525 157.952C127.766 158.288 130.757 159.043 132.814 160.554C133.001 160.721 133.25 160.889 133.5 161.057ZM132.814 516.742C130.757 518.253 127.766 519.008 124.525 519.344C120.536 519.763 118.853 518.295 117.295 516.322C117.171 516.155 116.859 516.071 116.485 515.819C108.694 517.413 105.08 516.742 103.085 513.721C104.456 511.622 105.578 509.692 106.824 507.804C107.198 507.258 107.697 506.713 108.196 506.209C109.255 505.202 110.377 504.237 111.748 503.02C110.502 502.642 109.692 502.223 108.819 502.139C105.391 501.803 103.334 500.628 102.275 498.278C101.527 496.557 99.408 495.089 101.714 493.242C101.839 493.116 101.278 492.613 100.904 492.067C103.147 491.564 105.142 491.144 107.448 490.641C108.32 488.962 109.692 487.242 111.935 485.857C112.808 485.311 113.307 484.43 113.93 483.675C114.366 483.171 114.553 482.542 115.114 482.164C119.851 478.891 124.275 475.366 129.573 472.512C131.131 471.673 132.44 470.834 133.5 469.827C134.559 470.876 135.93 471.673 137.426 472.512C142.724 475.366 147.087 478.891 151.886 482.164C152.447 482.542 152.633 483.171 153.07 483.675C153.693 484.43 154.129 485.311 155.064 485.857C157.37 487.242 158.679 488.962 159.551 490.641C161.857 491.144 163.914 491.606 166.096 492.067C165.722 492.613 165.098 493.158 165.285 493.242C167.591 495.131 165.473 496.599 164.725 498.278C163.665 500.628 161.608 501.803 158.18 502.139C157.308 502.223 156.498 502.6 155.251 503.02C156.622 504.237 157.744 505.202 158.804 506.209C159.365 506.713 159.801 507.258 160.175 507.804C161.421 509.692 162.605 511.58 163.914 513.721C161.92 516.784 158.305 517.413 150.514 515.819C150.078 516.071 149.767 516.155 149.704 516.322C148.146 518.295 146.463 519.763 142.474 519.344C139.234 519.008 136.242 518.253 134.185 516.742C133.936 516.574 133.749 516.406 133.5 516.238C133.25 516.406 133.001 516.574 132.814 516.742ZM133.5 179.06C133.687 178.85 133.874 178.682 134.123 178.514C134.185 178.472 133.811 178.22 133.562 177.927C133.188 178.22 132.877 178.472 132.939 178.514C133.064 178.682 133.25 178.892 133.5 179.06ZM132.876 498.782C132.814 498.823 133.188 499.075 133.5 499.369C133.811 499.075 134.123 498.823 134.061 498.782C133.874 498.614 133.624 498.404 133.437 498.236C133.25 498.404 133.063 498.614 132.876 498.782ZM133.5 196.055C134.31 195.342 134.621 194.46 133.936 193.117C133.811 193.201 133.624 193.243 133.5 193.285C133.375 193.243 133.188 193.159 133.063 193.117C132.315 194.46 132.69 195.342 133.5 196.055ZM133.001 484.178C133.126 484.094 133.313 484.052 133.437 484.01C133.562 484.052 133.749 484.136 133.874 484.178C134.559 482.835 134.185 481.954 133.437 481.241C132.689 481.954 132.315 482.835 133.001 484.178ZM133.5 196.055C134.31 195.342 134.621 194.46 133.936 193.117C133.811 193.201 133.624 193.243 133.5 193.285C133.375 193.243 133.188 193.159 133.063 193.117C132.315 194.46 132.69 195.342 133.5 196.055ZM133.001 484.178C133.126 484.094 133.313 484.052 133.437 484.01C133.562 484.052 133.749 484.136 133.874 484.178C134.559 482.835 134.185 481.954 133.437 481.241C132.689 481.954 132.315 482.835 133.001 484.178Z" fill="#F9985F"/>
<path d="M133.5 140.117C133.749 139.823 134.061 139.53 134.31 139.278C135.058 138.523 135.93 137.725 136.304 136.844C137.115 134.914 138.174 133.235 140.979 132.228C141.353 132.102 141.602 131.85 141.976 131.682C145.03 130.13 148.146 128.577 152.945 129.542C153.88 130.801 154.939 132.06 155.812 133.361C156.996 135.123 156.56 136.424 154.316 137.641C152.633 138.565 151.325 139.572 150.577 140.998C149.891 142.341 148.52 143.39 146.962 144.439C142.412 147.503 137.925 150.65 133.437 153.755C128.95 150.65 124.462 147.503 119.913 144.439C118.355 143.39 116.984 142.341 116.298 140.998C115.55 139.572 114.304 138.523 112.559 137.641C110.315 136.466 109.879 135.123 111.063 133.361C111.935 132.06 112.995 130.801 113.93 129.542C118.729 128.577 121.783 130.13 124.899 131.682C125.21 131.85 125.522 132.102 125.896 132.228C128.701 133.193 129.76 134.914 130.57 136.844C130.944 137.725 131.817 138.481 132.565 139.278C132.939 139.53 133.188 139.823 133.5 140.117Z" fill="#F9985F"/>
<path d="M133.5 537.179C133.749 537.472 134.061 537.766 134.31 538.018C135.058 538.773 135.93 539.57 136.304 540.452C137.115 542.382 138.174 544.061 140.979 545.068C141.353 545.194 141.602 545.445 141.976 545.613C145.03 547.166 148.146 548.719 152.945 547.753C153.88 546.495 154.939 545.236 155.812 543.935C156.996 542.172 156.56 540.871 154.316 539.654C152.633 538.731 151.325 537.724 150.577 536.297C149.891 534.954 148.52 533.905 146.962 532.856C142.412 529.793 137.925 526.646 133.437 523.54C128.95 526.646 124.462 529.793 119.913 532.856C118.355 533.905 116.984 534.954 116.298 536.297C115.55 537.724 114.304 538.773 112.559 539.654C110.315 540.829 109.879 542.172 111.063 543.935C111.935 545.236 112.995 546.495 113.93 547.753C118.729 548.719 121.783 547.166 124.899 545.613C125.21 545.445 125.522 545.194 125.896 545.068C128.701 544.103 129.76 542.382 130.57 540.452C130.944 539.57 131.817 538.815 132.565 538.018C132.939 537.766 133.188 537.472 133.5 537.179Z" fill="#F9985F"/>
<path d="M133.5 66.8481C137.987 69.9535 142.474 73.1008 147.024 76.1641C148.582 77.2132 149.954 78.2623 150.639 79.6051C151.387 81.0319 152.634 82.081 154.379 82.9622C156.622 84.1372 157.059 85.4801 155.874 87.2425C155.002 88.5434 153.942 89.8023 153.007 91.0613C148.208 92.0264 145.154 90.4738 142.038 88.9211C141.727 88.7532 141.415 88.5015 141.041 88.3756C138.237 87.4104 137.177 85.6899 136.367 83.7596C135.993 82.8783 135.12 82.123 134.372 81.3256C134.123 81.0319 133.812 80.7801 133.562 80.4864C133.313 80.7801 133.001 81.0739 132.752 81.3256C132.004 82.081 131.132 82.8783 130.758 83.7596C129.947 85.6899 128.888 87.3684 126.083 88.3756C125.709 88.5015 125.46 88.7532 125.086 88.9211C122.032 90.4738 118.916 92.0264 114.117 91.0613C113.182 89.8023 112.122 88.5434 111.25 87.2425C110.066 85.4801 110.502 84.1792 112.745 82.9622C114.428 82.039 115.737 81.0319 116.485 79.6051C117.17 78.2623 118.542 77.2132 120.1 76.1641C124.525 73.1008 129.012 69.9535 133.5 66.8481Z" fill="#F9985F"/>
<path d="M133.5 610.447C137.987 607.342 142.474 604.194 147.024 601.131C148.582 600.082 149.954 599.033 150.639 597.69C151.387 596.263 152.634 595.214 154.379 594.333C156.622 593.158 157.059 591.815 155.874 590.053C155.002 588.752 153.942 587.493 153.007 586.234C148.208 585.269 145.154 586.821 142.038 588.374C141.727 588.542 141.415 588.794 141.041 588.92C138.237 589.885 137.177 591.605 136.367 593.536C135.993 594.417 135.12 595.172 134.372 595.97C134.123 596.263 133.812 596.515 133.562 596.809C133.313 596.515 133.001 596.221 132.752 595.97C132.004 595.214 131.132 594.417 130.758 593.536C129.947 591.605 128.888 589.927 126.083 588.92C125.709 588.794 125.46 588.542 125.086 588.374C122.032 586.821 118.916 585.269 114.117 586.234C113.182 587.493 112.122 588.752 111.25 590.053C110.066 591.815 110.502 593.116 112.745 594.333C114.428 595.256 115.737 596.263 116.485 597.69C117.17 599.033 118.542 600.082 120.1 601.131C124.525 604.194 129.012 607.342 133.5 610.447Z" fill="#F9985F"/>
<path d="M164.226 214.477C161.796 215.736 159.552 217.415 158.306 219.177C155.439 219.471 153.631 219.051 148.708 220.562C148.147 220.184 147.274 219.597 146.401 219.009C149.393 216.156 148.022 216.281 148.458 215.19C145.03 214.225 145.778 213.722 143.161 217.289C141.291 216.827 139.359 216.323 136.803 215.652C139.795 213.47 139.608 210.658 142.974 208.77C145.342 207.427 146.464 205.077 148.147 203.189C150.64 200.461 153.444 197.985 157.371 196.097C159.303 195.174 160.674 193.705 162.481 192.656C164.476 191.523 167.592 191.439 169.462 192.53C171.269 193.579 173.139 194.796 174.136 196.223C175.756 198.489 176.691 201.007 177.689 202.811C174.448 205.749 171.768 208.224 169.026 210.616C167.592 211.959 166.096 213.512 164.226 214.477Z" fill="#F9985F"/>
<path d="M164.226 462.818C161.796 461.559 159.552 459.881 158.306 458.118C155.439 457.824 153.631 458.244 148.708 456.733C148.147 457.111 147.274 457.699 146.401 458.286C149.393 461.14 148.022 461.014 148.458 462.105C145.03 463.07 145.778 463.573 143.161 460.007C141.291 460.468 139.359 460.972 136.803 461.643C139.795 463.825 139.608 466.637 142.974 468.525C145.342 469.868 146.464 472.218 148.147 474.106C150.64 476.834 153.444 479.31 157.371 481.198C159.303 482.121 160.674 483.59 162.481 484.639C164.476 485.772 167.592 485.856 169.462 484.765C171.269 483.716 173.139 482.499 174.136 481.072C175.756 478.806 176.691 476.288 177.689 474.484C174.448 471.547 171.768 469.071 169.026 466.679C167.592 465.336 166.096 463.783 164.226 462.818Z" fill="#F9985F"/>
<path d="M102.711 214.477C105.142 215.736 107.386 217.415 108.633 219.177C111.499 219.471 113.307 219.051 118.23 220.562C118.791 220.184 119.664 219.597 120.536 219.009C117.545 216.156 118.916 216.281 118.48 215.19C121.908 214.225 121.16 213.722 123.777 217.289C125.647 216.827 127.579 216.323 130.135 215.652C127.143 213.47 127.33 210.658 123.964 208.77C121.596 207.427 120.474 205.077 118.791 203.189C116.298 200.461 113.494 197.985 109.567 196.097C107.635 195.174 106.264 193.705 104.457 192.656C102.462 191.523 99.346 191.439 97.4763 192.53C95.6688 193.579 93.7991 194.796 92.8019 196.223C91.1814 198.489 90.2466 201.007 89.2494 202.811C92.4903 205.749 95.1702 208.224 97.9125 210.616C99.346 211.959 100.904 213.512 102.711 214.477Z" fill="#F9985F"/>
<path d="M102.711 462.818C105.142 461.559 107.386 459.881 108.633 458.118C111.499 457.824 113.307 458.244 118.23 456.733C118.791 457.111 119.664 457.699 120.536 458.286C117.545 461.14 118.916 461.014 118.48 462.105C121.908 463.07 121.16 463.573 123.777 460.007C125.647 460.468 127.579 460.972 130.135 461.643C127.143 463.825 127.33 466.637 123.964 468.525C121.596 469.868 120.474 472.218 118.791 474.106C116.298 476.834 113.494 479.31 109.567 481.198C107.635 482.121 106.264 483.59 104.457 484.639C102.462 485.772 99.346 485.856 97.4763 484.765C95.6688 483.716 93.7991 482.499 92.8019 481.072C91.1814 478.806 90.2466 476.288 89.2494 474.484C92.4903 471.547 95.1702 469.071 97.9125 466.679C99.346 465.336 100.904 463.783 102.711 462.818Z" fill="#F9985F"/>
<path d="M169.524 28.0318C167.655 29.1229 164.538 29.0389 162.544 27.9059C160.737 26.8568 159.365 25.3881 157.433 24.4649C153.507 22.5765 150.64 20.1006 148.209 17.373C146.527 15.4846 145.405 13.1347 143.036 11.7918C139.671 9.90345 139.858 7.09188 136.866 4.90976C139.421 4.2803 141.354 3.77674 143.223 3.27318C145.841 6.88206 145.093 6.33653 148.521 5.37136C148.085 4.28031 149.456 4.40619 146.464 1.55266C147.337 0.965165 148.209 0.377674 148.77 0C153.756 1.5107 155.501 1.13302 158.368 1.38481C159.615 3.14728 161.858 4.8678 164.289 6.08475C166.159 7.04991 167.654 8.60258 169.15 9.90345C171.83 12.2954 174.573 14.7712 177.814 17.7087C176.879 19.5132 175.944 22.031 174.261 24.297C173.139 25.7658 171.332 26.9827 169.524 28.0318Z" fill="#F9985F"/>
<path d="M169.524 649.263C167.655 648.172 164.538 648.256 162.544 649.389C160.737 650.438 159.365 651.907 157.433 652.83C153.507 654.719 150.64 657.195 148.209 659.922C146.527 661.811 145.405 664.161 143.036 665.503C139.671 667.392 139.858 670.203 136.866 672.385C139.421 673.015 141.354 673.518 143.223 674.022C145.841 670.413 145.093 670.959 148.521 671.924C148.085 673.015 149.456 672.889 146.464 675.743C147.337 676.33 148.209 676.918 148.77 677.295C153.756 675.785 155.501 676.162 158.368 675.91C159.615 674.148 161.858 672.427 164.289 671.21C166.159 670.245 167.654 668.693 169.15 667.392C171.83 665 174.573 662.524 177.814 659.587C176.879 657.782 175.944 655.264 174.261 652.998C173.139 651.529 171.332 650.313 169.524 649.263Z" fill="#F9985F"/>
<path d="M97.4136 28.0318C99.2834 29.1229 102.4 29.0389 104.394 27.9059C106.201 26.8568 107.573 25.3881 109.505 24.4649C113.431 22.5765 116.298 20.1006 118.729 17.373C120.412 15.4846 121.534 13.1347 123.902 11.7918C127.267 9.90345 127.08 7.09188 130.072 4.90976C127.517 4.2803 125.584 3.77674 123.715 3.27318C121.097 6.88206 121.845 6.33653 118.417 5.37136C118.853 4.28031 117.482 4.40619 120.474 1.55266C119.601 0.965165 118.729 0.377674 118.168 0C113.182 1.5107 111.437 1.13302 108.57 1.38481C107.323 3.14728 105.08 4.8678 102.649 6.08475C100.779 7.04991 99.2834 8.60258 97.7876 9.90345C95.1077 12.2954 92.3653 14.7712 89.1244 17.7087C90.0593 19.5132 90.9943 22.031 92.677 24.297C93.7989 25.7658 95.6062 26.9827 97.4136 28.0318Z" fill="#F9985F"/>
<path d="M97.4136 649.263C99.2834 648.172 102.4 648.256 104.394 649.389C106.201 650.438 107.573 651.907 109.505 652.83C113.431 654.719 116.298 657.195 118.729 659.922C120.412 661.811 121.534 664.161 123.902 665.503C127.267 667.392 127.08 670.203 130.072 672.385C127.517 673.015 125.584 673.518 123.715 674.022C121.097 670.413 121.845 670.959 118.417 671.924C118.853 673.015 117.482 672.889 120.474 675.743C119.601 676.33 118.729 676.918 118.168 677.295C113.182 675.785 111.437 676.162 108.57 675.91C107.323 674.148 105.08 672.427 102.649 671.21C100.779 670.245 99.2834 668.693 97.7876 667.392C95.1077 665 92.3653 662.524 89.1244 659.587C90.0593 657.782 90.9943 655.264 92.677 652.998C93.7989 651.529 95.6062 650.313 97.4136 649.263Z" fill="#F9985F"/>
<path d="M133.5 315.022C136.741 314.98 139.92 315.735 142.288 317.33C147.586 320.855 148.645 326.142 144.656 329.038C141.478 331.304 137.427 332.521 133.5 332.605C129.574 332.521 125.523 331.304 122.344 329.038C118.355 326.142 119.415 320.855 124.712 317.33C127.081 315.693 130.259 314.98 133.5 315.022Z" fill="#F9985F"/>
<path d="M133.5 362.274C136.741 362.316 139.92 361.56 142.288 359.966C147.586 356.441 148.645 351.153 144.656 348.258C141.478 345.992 137.427 344.775 133.5 344.691C129.574 344.775 125.523 345.992 122.344 348.258C118.355 351.153 119.415 356.441 124.712 359.966C127.081 361.602 130.259 362.316 133.5 362.274Z" fill="#F9985F"/>
<path d="M204.114 67.5195C198.878 63.9946 198.255 58.2875 202.743 55.2661C207.916 51.7831 214.21 51.8671 219.508 55.476C225.055 59.2107 225.117 63.8267 219.695 67.5615C215.457 70.415 208.352 70.415 204.114 67.5195Z" fill="#F9985F"/>
<path d="M204.114 609.776C198.878 613.3 198.255 619.008 202.743 622.029C207.916 625.512 214.21 625.428 219.508 621.819C225.055 618.084 225.117 613.468 219.695 609.734C215.457 606.88 208.352 606.88 204.114 609.776Z" fill="#F9985F"/>
<path d="M62.823 67.5195C68.0583 63.9946 68.6815 58.2875 64.1941 55.2661C59.0212 51.7831 52.7264 51.8671 47.4288 55.476C41.8819 59.2107 41.8195 63.8267 47.2418 67.5615C51.4799 70.415 58.5849 70.415 62.823 67.5195Z" fill="#F9985F"/>
<path d="M62.823 609.776C68.0583 613.3 68.6815 619.008 64.1941 622.029C59.0212 625.512 52.7264 625.428 47.4288 621.819C41.8819 618.084 41.8195 613.468 47.2418 609.734C51.4799 606.88 58.5849 606.88 62.823 609.776Z" fill="#F9985F"/>
<path d="M202.743 42.5518C198.255 39.5304 198.878 33.8233 204.114 30.2983C208.352 27.4028 215.519 27.4028 219.695 30.2983C225.117 34.0331 225.055 38.6491 219.508 42.3839C214.148 45.9508 207.853 46.0347 202.743 42.5518Z" fill="#F9985F"/>
<path d="M202.743 634.744C198.255 637.765 198.878 643.473 204.114 646.997C208.352 649.893 215.519 649.893 219.695 646.997C225.117 643.263 225.055 638.647 219.508 634.912C214.148 631.345 207.853 631.261 202.743 634.744Z" fill="#F9985F"/>
<path d="M64.2565 42.5518C68.7439 39.5304 68.1207 33.8233 62.8854 30.2983C58.6473 27.4028 51.4799 27.4028 47.3042 30.2983C41.8819 34.0331 41.9443 38.6491 47.4912 42.3839C52.7888 45.9508 59.0835 46.0347 64.2565 42.5518Z" fill="#F9985F"/>
<path d="M64.2565 634.744C68.7439 637.765 68.1207 643.473 62.8854 646.997C58.6473 649.893 51.4799 649.893 47.3042 646.997C41.8819 643.263 41.9443 638.647 47.4912 634.912C52.7888 631.345 59.0835 631.261 64.2565 634.744Z" fill="#F9985F"/>
<path d="M203.303 122.282C197.569 119.009 197.195 114.771 201.434 111.917C206.856 108.267 215.519 109.022 222.624 113.764C225.553 115.694 223.995 121.401 219.757 124.255C215.145 127.444 208.726 125.388 203.303 122.282Z" fill="#F9985F"/>
<path d="M203.303 555.013C197.569 558.286 197.195 562.525 201.434 565.378C206.856 569.029 215.519 568.274 222.624 563.532C225.553 561.601 223.995 555.894 219.757 553.041C215.145 549.852 208.726 551.908 203.303 555.013Z" fill="#F9985F"/>
<path d="M63.6336 122.282C69.3675 119.009 69.7414 114.771 65.5033 111.917C60.081 108.267 51.4179 109.022 44.3128 113.764C41.3836 115.694 42.9417 121.401 47.1798 124.255C51.7919 127.444 58.2113 125.388 63.6336 122.282Z" fill="#F9985F"/>
<path d="M63.6336 555.013C69.3675 558.286 69.7414 562.525 65.5033 565.378C60.081 569.029 51.4179 568.274 44.3128 563.532C41.3836 561.601 42.9417 555.894 47.1798 553.041C51.7919 549.852 58.2113 551.908 63.6336 555.013Z" fill="#F9985F"/>
<path d="M211.904 168.946C209.598 168.358 207.417 167.477 205.734 166.26C201.558 163.239 201.745 158.959 206.295 155.979C207.978 154.888 209.91 154.091 211.904 153.629C213.899 154.091 215.831 154.888 217.514 155.979C222.001 158.959 222.25 163.239 218.074 166.26C216.392 167.477 214.21 168.4 211.904 168.946Z" fill="#F9985F"/>
<path d="M211.904 508.349C209.598 508.937 207.417 509.818 205.734 511.035C201.558 514.056 201.745 518.337 206.295 521.316C207.978 522.407 209.91 523.205 211.904 523.666C213.899 523.205 215.831 522.407 217.514 521.316C222.001 518.337 222.25 514.056 218.074 511.035C216.392 509.818 214.21 508.895 211.904 508.349Z" fill="#F9985F"/>
<path d="M55.0322 168.946C57.3382 168.358 59.5197 167.477 61.2024 166.26C65.3782 163.239 65.1911 158.959 60.6414 155.979C58.9587 154.888 57.0266 154.091 55.0322 153.629C53.0378 154.091 51.1057 154.888 49.4229 155.979C44.9355 158.959 44.6863 163.239 48.8621 166.26C50.5448 167.477 52.7262 168.4 55.0322 168.946Z" fill="#F9985F"/>
<path d="M55.0322 508.349C57.3382 508.937 59.5197 509.818 61.2024 511.035C65.3782 514.056 65.1911 518.337 60.6414 521.316C58.9587 522.407 57.0266 523.205 55.0322 523.666C53.0378 523.205 51.1057 522.407 49.4229 521.316C44.9355 518.337 44.6863 514.056 48.8621 511.035C50.5448 509.818 52.7262 508.895 55.0322 508.349Z" fill="#F9985F"/>
<path d="M218.573 188.124C214.398 191.019 207.293 190.977 202.992 188.124C197.757 184.557 197.133 178.892 201.621 175.87C206.794 172.387 213.089 172.471 218.386 176.08C223.933 179.773 223.996 184.389 218.573 188.124Z" fill="#F9985F"/>
<path d="M218.573 489.172C214.398 486.276 207.293 486.318 202.992 489.172C197.757 492.738 197.133 498.404 201.621 501.425C206.794 504.908 213.089 504.824 218.386 501.215C223.933 497.522 223.996 492.906 218.573 489.172Z" fill="#F9985F"/>
<path d="M48.3641 188.124C52.5399 191.019 59.6449 190.977 63.9453 188.124C69.1806 184.557 69.8039 178.892 65.3165 175.87C60.1435 172.387 53.8487 172.471 48.5511 176.08C43.0042 179.773 42.9418 184.389 48.3641 188.124Z" fill="#F9985F"/>
<path d="M48.3641 489.172C52.5399 486.276 59.6449 486.318 63.9453 489.172C69.1806 492.738 69.8039 498.404 65.3165 501.425C60.1435 504.908 53.8487 504.824 48.5511 501.215C43.0042 497.522 42.9418 492.906 48.3641 489.172Z" fill="#F9985F"/>
<path d="M25.6156 338.647C18.1366 334.073 9.66037 328.996 0 323.289C31.2871 304.908 114.117 245.026 133.5 231.64C152.883 245.026 235.713 304.908 267 323.289C257.34 328.996 248.864 334.073 241.385 338.647C248.864 343.221 257.34 348.299 267 354.006C235.713 372.386 152.883 432.268 133.5 445.655C114.117 432.268 31.2871 372.386 0 354.006C9.59804 348.299 18.0743 343.221 25.6156 338.647ZM212.84 338.647C216.891 335.29 219.633 332.772 219.945 332.269C229.792 325.638 229.231 328.618 237.52 323.33C229.231 318.043 229.792 321.022 219.945 314.392C216.268 309.189 192.459 291.354 181.054 287.997C163.79 276.289 141.478 259.42 133.5 253.209C125.523 259.42 103.21 276.289 85.9462 287.997C74.5407 291.354 50.7325 309.189 47.0553 314.392C37.2703 321.022 37.7689 318.085 29.4797 323.33C37.7689 328.618 37.208 325.638 47.0553 332.269C47.4293 332.772 50.1717 335.332 54.1605 338.647C50.1093 342.004 47.367 344.522 47.0553 345.026C37.208 351.656 37.7689 348.677 29.4797 353.964C37.7689 359.251 37.208 356.272 47.0553 362.902C50.7325 368.106 74.5407 385.94 85.9462 389.298C103.21 401.005 125.523 417.875 133.5 424.085C141.478 417.875 163.79 401.005 181.054 389.298C192.459 385.94 216.268 368.106 219.945 362.902C229.73 356.272 229.231 359.21 237.52 353.964C229.231 348.677 229.792 351.656 219.945 345.026C219.571 344.522 216.828 342.004 212.84 338.647Z" fill="#F9985F"/>
<path d="M100.78 338.648C95.2328 334.913 87.6914 330.129 76.099 323.331C89.5612 315.442 125.149 289.676 133.5 283.927C141.852 289.676 177.439 315.442 190.902 323.331C179.309 330.129 171.706 334.913 166.221 338.648C171.768 342.382 179.309 347.166 190.902 353.964C177.439 361.853 141.852 387.619 133.5 393.368C125.149 387.619 89.5612 361.853 76.099 353.964C87.6291 347.166 95.2328 342.382 100.78 338.648ZM142.6 338.648C145.716 336.465 148.458 334.661 148.708 334.451C153.382 333.066 160.799 326.478 161.173 326.016C164.289 323.876 164.164 324.841 166.782 323.163C164.164 321.484 164.289 322.408 161.173 320.309C159.988 318.631 152.385 312.924 148.708 311.875C143.161 308.14 136.056 302.727 133.5 300.754C130.945 302.727 123.778 308.14 118.293 311.875C114.616 312.966 107.012 318.673 105.828 320.309C102.712 322.45 102.836 321.484 100.219 323.163C102.899 324.841 102.712 323.918 105.828 326.016C106.202 326.52 113.619 333.066 118.293 334.451C118.542 334.619 121.222 336.423 124.401 338.648C121.285 340.83 118.542 342.634 118.293 342.844C113.619 344.229 106.202 350.817 105.828 351.279C102.712 353.419 102.836 352.454 100.219 354.132C102.836 355.811 102.712 354.887 105.828 356.986C107.012 358.664 114.616 364.371 118.293 365.42C123.84 369.155 130.945 374.569 133.5 376.541C136.056 374.569 143.223 369.155 148.708 365.42C152.385 364.329 159.988 358.622 161.173 356.986C164.289 354.846 164.164 355.811 166.782 354.132C164.102 352.454 164.289 353.377 161.173 351.279C160.799 350.775 153.382 344.229 148.708 342.844C148.396 342.634 145.716 340.83 142.6 338.648Z" fill="#F9985F"/>
</g>
</svg>
